# xmcd
#
# Track frame offsets: 
#        150
#        13424
#        25315
#        37529
#        63422
#        80362
#        94872
#        106526
#        124896
#        134979
#        159258
#        176707
#        189029
#        197466
#
# Disc length: 2776 seconds
#
# Revision: 0
# Processed by: cddbd v1.5.2PL0 Copyright (c) Steve Scherf et al.
# Submitted via: ExactAudioCopy v0.99pb3
#
DISCID=ac0ad60e
DTITLE=James Cotton - South Side Boogie
DYEAR=2004
DGENRE=Blues
TTITLE0=Knock On Wood
TTITLE1=Don't Start Me Talkin'
TTITLE2=South Side Boogie
TTITLE3=Jelly Jelly
TTITLE4=The Midnight Creeper
TTITLE5=So Glad i'm Living
TTITLE6=Good Time Charlie
TTITLE7=V-8 Ford Blues
TTITLE8=Diggin' My Potatoes
TTITLE9=Sweet Sixteen
TTITLE10=There's Something On Your Mind
TTITLE11=You're The Top
TTITLE12=Polly Put The Kettle On
TTITLE13=Turn On Your Lovelight
EXTD=
EXTT0=
EXTT1=
EXTT2=
EXTT3=
EXTT4=
EXTT5=
EXTT6=
EXTT7=
EXTT8=
EXTT9=
EXTT10=
EXTT11=
EXTT12=
EXTT13=
PLAYORDER=
